# xmcd
#
# Track frame offsets:
#	150
#	5325
#	10687
#	15825
#	21542
#	26125
#	30857
#	35425
#	40515
#	50437
#	60212
#	70562
#	81675
#	93225
#	105375
#	110880
#	116412
#	121950
#	127650
#	130917
#	134312
#	137945
#	141150
#	144802
#	149175
#	153695
#	156605
#	159735
#	163460
#	168567
#	172890
#	177087
#	180182
#	183180
#	186762
#	188782
#	190937
#	193112
#
# Disc length: 2751 seconds
#
# Revision: 1
# Processed by: cddbd v1.5.1PL0 Copyright (c) Steve Scherf et al.
# Submitted via: CDex 1.50Beta5
#
DISCID=060abd26
DTITLE=オルゴールメロディー - Musical Box
DYEAR=1984
DGENRE=Unclassifiable
TTITLE0=Bimmel Bolle/リンリン時計
TTITLE1=La Marseilaise/ラ・マルセイエーズ
TTITLE2=Les Staancs A Manon
TTITLE3=Hymne De Transvaal/トランスヴァール讃歌
TTITLE4=Devils March/悪魔の行進
TTITLE5=Monastery Bells/修道院の鐘
TTITLE6=Der Trompeter Von S・ckingen/ゼッキンゲンのラッパ手
TTITLE7=Vo Mine Berge Muess Scheide
TTITLE8=Wiener Blut/ウィーン気質
TTITLE9=Silent Night,Holy Night/きよしこの夜
TTITLE10=Tales From The Vienna Woods/ウィーンの森の物語
TTITLE11=Under The Double Eagle March/双頭の鷲の旗の下に
TTITLE12=Danube Waves Waltz/ドナウ川のさざ波
TTITLE13=La Paloma/ラ・パロマ
TTITLE14=Invitation To The Dance/舞踏への勧誘
TTITLE15=Under The Banner Of Victory/勝利の旗の下に
TTITLE16=Die Kirschen In Nachbar's Garten/隣の庭のさくらんぼ
TTITLE17=The Merry Widow/メリー・ウィドウ
TTITLE18=Roses Of The South/南国のばら
TTITLE19=O Sanctissima/O Du Fro¨Hliche/いざうたえ、いざいわえ
TTITLE20=Cantique De Noe¨L/クリスマスの歌
TTITLE21=Santa Lucia/サンタ・ルチア
TTITLE22=Chanson De Fortunio
TTITLE23=A Life On The Ocean Wave/洋上の生活
TTITLE24=Unknown
TTITLE25=みやさん みやさん(日本古謡)
TTITLE26=Unknown(中国古謡)
TTITLE27=Sinfa(中国古謡)
TTITLE28=ひとつとや(日本古謡)
TTITLE29=Tannh・userタンホイザー
TTITLE30=Unknown
TTITLE31=Nabucooonosor/ナブッコ
TTITLE32=La Traviata/ラ・トラヴィアタ
TTITLE33=Il Trovatore/イル・トロヴァトーレ
TTITLE34=Dier Lindenbaum/菩提樹
TTITLE35=Amarylis/アマリリス
TTITLE36=Gavotte/ガヴォット
TTITLE37=Silvery Waves/銀の波
EXTD=
EXTT0=
EXTT1=
EXTT2=
EXTT3=
EXTT4=
EXTT5=
EXTT6=
EXTT7=
EXTT8=
EXTT9=
EXTT10=
EXTT11=
EXTT12=
EXTT13=
EXTT14=
EXTT15=
EXTT16=
EXTT17=
EXTT18=
EXTT19=
EXTT20=
EXTT21=
EXTT22=
EXTT23=
EXTT24=
EXTT25=
EXTT26=
EXTT27=
EXTT28=
EXTT29=
EXTT30=
EXTT31=
EXTT32=
EXTT33=
EXTT34=
EXTT35=
EXTT36=
EXTT37=
PLAYORDER=
